<?xml version="1.0" ?><svg viewBox="0 0 64 64" xmlns="http://www.w3.org/2000/svg">
    <title />
    <g id="outline">
        <path d="M32,39a7,7,0,1,1,7-7A7,7,0,0,1,32,39Zm0-12a5,5,0,1,0,5,5A5,5,0,0,0,32,27Z" fill="#34a852" />
        <path
            d="M32,60c-6.17,0-11-12.3-11-28S25.83,4,32,4,43,16.3,43,32,38.17,60,32,60ZM32,6c-4.35,0-9,10.45-9,26s4.65,26,9,26,9-10.45,9-26S36.35,6,32,6Z" fill="#4285f4"/>
        <path
            d="M48.94,49c-5.77,0-14-2.6-22.44-7.47A58.22,58.22,0,0,1,11.16,29.22C7.4,24.69,6.19,20.7,7.75,18c3.09-5.34,16.15-3.38,29.75,4.47A58.22,58.22,0,0,1,52.84,34.78c3.76,4.53,5,8.52,3.41,11.22C55.08,48,52.47,49,48.94,49ZM15,16.94c-2.82,0-4.78.71-5.56,2.06-1.09,1.9.08,5.15,3.22,8.94A55.7,55.7,0,0,0,27.5,39.79c13.47,7.78,24.84,9,27,5.21,1.09-1.9-.08-5.15-3.22-8.94A55.7,55.7,0,0,0,36.5,24.21h0C27.86,19.22,20.08,16.94,15,16.94Z" fill="#ea4335"/>
        <path
            d="M55.34,24.32a.92.92,0,0,1-.36-.07A1,1,0,0,1,54.41,23a8.41,8.41,0,0,0,.28-.85,1,1,0,0,1,1.93.53,9.09,9.09,0,0,1-.35,1A1,1,0,0,1,55.34,24.32Z" fill="#fbbc05" />
        <path
            d="M15,49c-.33,0-.64,0-.95,0a1,1,0,1,1,.11-2,17.84,17.84,0,0,0,1.93,0,1,1,0,0,1,.12,2C15.8,49,15.4,49,15,49Zm5.19-.6a1,1,0,0,1-.2-2c.63-.13,1.27-.28,1.93-.45a1,1,0,1,1,.51,1.93q-1,.27-2,.48A.65.65,0,0,1,20.2,48.44Zm-10-.42a1,1,0,0,1-.5-.13,5.29,5.29,0,0,1-1.83-1.71,1,1,0,0,1,1.69-1.07,3.32,3.32,0,0,0,1.14,1,1,1,0,0,1-.5,1.86Zm15.9-1.26a1,1,0,0,1-.33-1.94c.62-.22,1.24-.46,1.87-.71a1,1,0,0,1,1.3.56,1,1,0,0,1-.56,1.3c-.65.26-1.3.51-1.94.73A1.06,1.06,0,0,1,26.09,46.76Zm5.66-2.35a1,1,0,0,1-.43-1.9c.6-.28,1.21-.58,1.81-.89A1,1,0,0,1,34,43.41c-.62.31-1.24.62-1.86.91A1.07,1.07,0,0,1,31.75,44.41ZM8.32,42.7a.73.73,0,0,1-.25,0,1,1,0,0,1-.72-1.22,12,12,0,0,1,.79-2.08,1,1,0,1,1,1.8.86A9.83,9.83,0,0,0,9.29,42,1,1,0,0,1,8.32,42.7Zm28.86-1.14a1,1,0,0,1-.51-1.87c.59-.34,1.16-.68,1.73-1a1,1,0,1,1,1.05,1.7c-.58.36-1.17.71-1.77,1.06A.93.93,0,0,1,37.18,41.56Zm5.16-3.3a1,1,0,0,1-.82-.43,1,1,0,0,1,.24-1.39c.56-.39,1.1-.79,1.63-1.18a1,1,0,0,1,1.4.2,1,1,0,0,1-.2,1.4c-.55.4-1.11.81-1.68,1.21A.93.93,0,0,1,42.34,38.26Zm-31.13-.93a1,1,0,0,1-.61-.2,1,1,0,0,1-.19-1.4c.41-.54.86-1.09,1.34-1.63a1,1,0,1,1,1.51,1.31q-.67.78-1.26,1.53A1,1,0,0,1,11.21,37.33Zm36-2.84a1,1,0,0,1-.75-.34,1,1,0,0,1,.1-1.41c.52-.45,1-.9,1.49-1.34a1,1,0,0,1,1.41,0,1,1,0,0,1,0,1.42c-.5.46-1,.93-1.55,1.39A1,1,0,0,1,47.17,34.49ZM15.35,32.83a1,1,0,0,1-.73-.32,1,1,0,0,1,.05-1.41c.5-.47,1-.93,1.55-1.4a1,1,0,0,1,1.31,1.52c-.52.44-1,.89-1.49,1.34A1,1,0,0,1,15.35,32.83Zm4.71-3.93a1,1,0,0,1-.8-.4,1,1,0,0,1,.2-1.4c.55-.41,1.11-.81,1.68-1.21a1,1,0,1,1,1.15,1.63c-.56.39-1.1.79-1.63,1.18A1,1,0,0,1,20.06,28.9Zm5.07-3.44a1,1,0,0,1-.53-1.85c.59-.36,1.18-.72,1.78-1.07a1,1,0,0,1,1,1.73c-.59.34-1.17.69-1.73,1A1,1,0,0,1,25.13,25.46Zm5.35-3a1,1,0,0,1-.46-1.9l1.86-.91a1,1,0,0,1,1.33.48,1,1,0,0,1-.47,1.33c-.6.28-1.21.58-1.81.89A1.06,1.06,0,0,1,30.48,22.46Zm5.58-2.53a1,1,0,0,1-.93-.63,1,1,0,0,1,.56-1.3c.66-.26,1.31-.5,2-.73a1,1,0,0,1,.67,1.89c-.62.22-1.25.45-1.88.7A1,1,0,0,1,36.06,19.93Zm19.27-.52a1,1,0,0,1-.85-.47,3.29,3.29,0,0,0-1.12-1.07,1,1,0,1,1,1-1.72,5.18,5.18,0,0,1,1.8,1.74,1,1,0,0,1-.33,1.37A1,1,0,0,1,55.33,19.41ZM41.88,18a1,1,0,0,1-.26-2q1.05-.27,2-.48a1,1,0,0,1,1.18.78,1,1,0,0,1-.77,1.18c-.63.13-1.28.28-1.94.46Zm6-1a1,1,0,0,1-.06-2A19.43,19.43,0,0,1,50,15a1,1,0,1,1-.12,2A15.36,15.36,0,0,0,48,17Z" fill="#fbbc05"/>
        <path
            d="M51.57,30.16a1,1,0,0,1-.66-.24,1,1,0,0,1-.1-1.41l.63-.74A1,1,0,0,1,53,29c-.21.26-.43.53-.66.79A1,1,0,0,1,51.57,30.16Z" fill="#fbbc05" />
        <path d="M54,30a4,4,0,1,1,4-4A4,4,0,0,1,54,30Zm0-6a2,2,0,1,0,2,2A2,2,0,0,0,54,24Z"  fill="#fbbc05"/>
    </g>
</svg>