<?xml version="1.0" standalone="no"?><!DOCTYPE svg PUBLIC "-//W3C//DTD SVG 1.1//EN" "http://www.w3.org/Graphics/SVG/1.1/DTD/svg11.dtd"><svg t="1624500122927" class="icon" viewBox="0 0 1175 1024" version="1.1" xmlns="http://www.w3.org/2000/svg" p-id="1264" xmlns:xlink="http://www.w3.org/1999/xlink" width="229.4921875" height="200"><defs><style type="text/css"></style></defs><path d="M893.436774 420.695512a30.435446 30.435446 0 0 0 2.275547-11.66218l-7.679972-366.647565A35.839871 35.839871 0 0 0 853.614695 7.968113L485.829357 0.003698a25.884351 25.884351 0 0 0-11.66218 2.559991 33.848767 33.848767 0 0 0-8.248859 5.119981L0 471.32644l422.682918 421.260701L887.463462 429.797701a25.031021 25.031021 0 0 0 5.973312-9.102189zM80.497487 471.32644L496.638207 57.176825l335.074345 7.395528 7.111086 333.367686-416.14072 414.149615z" fill="#727272" p-id="1265"></path><path d="M537.313615 213.336261a100.124083 100.124083 0 0 0-29.866559 71.964184 101.261857 101.261857 0 0 0 29.866559 72.248628 102.968517 102.968517 0 0 0 144.497256 0 101.5463 101.5463 0 0 0 30.151002-72.248628 100.408526 100.408526 0 0 0-30.151002-71.964184 102.39963 102.39963 0 0 0-144.497256 0z m104.390734 103.821847a44.657617 44.657617 0 1 1 13.368841-31.857663 45.226503 45.226503 0 0 1-13.368841 31.857663z" fill="#727272" p-id="1266"></path></svg>